<?xml version="1.0" ?><svg viewBox="0 0 64 64" xmlns="http://www.w3.org/2000/svg"><defs><style>.a{fill:none;stroke:#000;stroke-linecap:round;stroke-linejoin:round;stroke-width:2px;}</style></defs><title/><circle class="a" cx="32" cy="32" r="27"/><path class="a" d="M32,54A22,22,0,1,1,54,32,22,22,0,0,1,32,54Z"/><path class="a" d="M38.64,34.21q.17-.23.32-.45c1.53-2.3,2.08-5.82.12-7.78A5,5,0,0,0,32,26"/><path class="a" d="M29.28,24.59A5,5,0,0,0,24.91,26c-2,2-1.41,5.47.12,7.78s5.35,5.22,6.58,6.12a.65.65,0,0,0,.77,0,47.94,47.94,0,0,0,4.34-3.59"/><polyline class="a" points="32 16 32 32 43 42"/></svg>